<?xml version="1.0" encoding="iso-8859-1"?>
<!-- Uploaded to: SVG Repo, www.svgrepo.com, Generator: SVG Repo Mixer Tools -->
<svg height="800px" width="800px" version="1.1" id="Layer_1" xmlns="http://www.w3.org/2000/svg" xmlns:xlink="http://www.w3.org/1999/xlink" 
	 viewBox="0 0 512 512" xml:space="preserve">
<path style="fill:#B3B3B3;" d="M434.439,110.654C401.179,45.876,334.359,0.003,255.98,0v101.329
	c55.478,0.004,100.593,43.671,100.595,99.15c0,54.805-45.491,102.048-100.595,102.052V512
	c70.646-73.617,151.953-154.542,187.529-251.428C461.298,212.121,457.979,156.5,434.439,110.654z"/>
<path style="fill:#979797;" d="M68.492,260.572C104.067,357.458,185.374,438.383,256.02,512V302.531
	c-55.103-0.004-100.595-47.247-100.595-102.052c0.002-55.478,45.117-99.146,100.595-99.15V0
	c-78.379,0.003-145.199,45.876-178.46,110.654C54.021,156.5,50.702,212.121,68.492,260.572z"/>
<circle style="fill:#0052B4;" cx="256" cy="198.773" r="160"/>
<g>
	<polygon style="fill:#F0F0F0;" points="166.282,136.165 169.734,146.795 180.909,146.795 171.869,153.363 175.322,163.99 
		166.282,157.422 157.239,163.99 160.692,153.363 151.652,146.795 162.827,146.795 	"/>
	<polygon style="fill:#F0F0F0;" points="201.062,125.73 204.516,136.359 215.692,136.359 206.651,142.928 210.105,153.556 
		201.062,146.989 192.021,153.556 195.475,142.928 186.435,136.359 197.61,136.359 	"/>
	<polygon style="fill:#F0F0F0;" points="235.845,115.296 239.3,125.926 250.474,125.926 241.434,132.493 244.887,143.122 
		235.845,136.554 226.804,143.122 230.258,132.493 221.217,125.926 232.391,125.926 	"/>
	<polygon style="fill:#F0F0F0;" points="345.718,136.165 342.266,146.795 331.091,146.795 340.131,153.363 336.678,163.99 
		345.718,157.422 354.761,163.99 351.308,153.363 360.348,146.795 349.173,146.795 	"/>
	<polygon style="fill:#F0F0F0;" points="310.938,125.73 307.484,136.359 296.308,136.359 305.349,142.928 301.895,153.556 
		310.938,146.989 319.978,153.556 316.525,142.928 325.565,136.359 314.39,136.359 	"/>
	<polygon style="fill:#F0F0F0;" points="276.155,115.296 272.7,125.926 261.526,125.926 270.566,132.493 267.113,143.122 
		276.155,136.554 285.196,143.122 281.742,132.493 290.782,125.926 279.609,125.926 	"/>
</g>
<path style="fill:#FFDA44;" d="M283.826,205.73L256,170.947l-13.913,6.956v13.914l-20.87,13.914h-13.913v17.973
	c20.391,8.258,34.783,28.239,34.783,51.591l0,0H256v-13.913l13.913-13.914l13.914,13.914l13.914-13.914v-13.914l13.913-20.868
	L283.826,205.73z"/>
<path style="fill:#C7C7C7;" d="M255.929,21.707c-73.745,0-141.451,47.552-166.61,116.806
	c-25.343,69.773-3.142,149.836,53.974,197.071c57.236,47.338,140.369,53.625,203.978,15.148
	c63.626-38.49,97.228-114.681,82.271-187.573C414.889,91.771,355.517,35.121,283.472,23.843
	C274.361,22.416,265.141,21.707,255.929,21.707 M398.59,263.184c-30.241,67.009-105.732,104.802-177.479,88.399
	c-55.215-12.621-100.384-55.764-115.778-110.195c-15.749-55.658,1.328-116.804,43.417-156.425
	c45.534-42.867,114.172-54.571,171.321-28.799c68.228,30.767,105.971,108.144,87.651,180.844
	C405.459,245.986,402.37,254.739,398.59,263.184C396.502,267.81,400.132,259.739,398.59,263.184"/>
</svg>